<svg xmlns="http://www.w3.org/2000/svg" viewBox="0 0 100 100">
  <circle cx="50" cy="50" r="50" fill="#ffffff"/>
  <g fill="#2c3e50" transform="translate(19, 0) scale(0.195)">
    <path d="M215.5 224c29.2-18.4 48.5-50.9 48.5-88c0-57.4-46.6-104-104-104S56 78.6 56 136c0 37.1 19.4 69.6 48.5 88L96 224c-17.7 0-32 14.3-32 32c0 16.5 12.5 30 28.5 31.8L80 400l160 0L227.5 287.8c16-1.8 28.5-15.3 28.5-31.8c0-17.7-14.3-32-32-32l-8.5 0z"/>
    <rect x="16" y="400" width="288" height="112" rx="12"/>
  </g>
</svg>
